<svg xmlns="http://www.w3.org/2000/svg" xmlns:xlink="http://www.w3.org/1999/xlink" width="500" zoomAndPan="magnify" viewBox="0 0 375 374.999991" height="500" preserveAspectRatio="xMidYMid meet" version="1.0"><defs><g/><clipPath id="119a56a59e"><path d="M 179 216 L 207 216 L 207 243.511719 L 179 243.511719 Z M 179 216 " clip-rule="nonzero"/></clipPath><clipPath id="2313dbfcd3"><path d="M 43.109375 194.011719 L 340.859375 194.011719 L 340.859375 205 L 43.109375 205 Z M 43.109375 194.011719 " clip-rule="nonzero"/></clipPath><clipPath id="076cc545db"><path d="M 179.601562 174.03125 L 340.765625 174.03125 L 340.765625 189.183594 L 179.601562 189.183594 Z M 179.601562 174.03125 " clip-rule="nonzero"/></clipPath></defs><path fill="#407bff" d="M 245.011719 229.496094 L 238.582031 225.785156 C 238.269531 225.605469 237.878906 225.832031 237.878906 226.191406 L 237.878906 227.445312 C 237.878906 227.632812 237.679688 227.75 237.515625 227.65625 L 234.277344 225.785156 C 233.964844 225.605469 233.574219 225.832031 233.574219 226.191406 L 233.574219 233.613281 C 233.574219 233.972656 233.964844 234.199219 234.277344 234.019531 L 237.515625 232.148438 C 237.679688 232.054688 237.878906 232.171875 237.878906 232.359375 L 237.878906 233.613281 C 237.878906 233.972656 238.269531 234.199219 238.582031 234.019531 L 245.011719 230.304688 C 245.320312 230.125 245.320312 229.675781 245.011719 229.496094 Z M 245.011719 229.496094 " fill-opacity="1" fill-rule="nonzero"/><path fill="#407bff" d="M 139.761719 229.488281 L 146.160156 225.792969 C 146.480469 225.609375 146.878906 225.839844 146.878906 226.207031 L 146.878906 227.480469 C 146.878906 227.652344 147.0625 227.757812 147.210938 227.671875 L 150.464844 225.792969 C 150.785156 225.609375 151.183594 225.839844 151.183594 226.207031 L 151.183594 233.59375 C 151.183594 233.964844 150.785156 234.191406 150.464844 234.007812 L 147.210938 232.128906 C 147.0625 232.042969 146.878906 232.152344 146.878906 232.324219 L 146.878906 233.59375 C 146.878906 233.964844 146.480469 234.191406 146.160156 234.007812 L 139.761719 230.316406 C 139.445312 230.132812 139.445312 229.671875 139.761719 229.488281 Z M 139.761719 229.488281 " fill-opacity="1" fill-rule="nonzero"/><path fill="#407bff" d="M 102.859375 234.007812 L 101.042969 232.957031 C 100.859375 232.851562 100.632812 232.984375 100.632812 233.195312 C 100.632812 233.347656 100.511719 233.46875 100.359375 233.472656 C 97.855469 233.523438 95.554688 232.160156 94.128906 229.804688 C 93.933594 229.484375 93.953125 229.074219 94.179688 228.777344 C 95.847656 226.574219 97.886719 226.039062 100.367188 226.214844 C 100.511719 226.222656 100.621094 226.34375 100.621094 226.488281 L 100.621094 226.605469 C 100.621094 226.820312 100.851562 226.953125 101.035156 226.84375 L 102.847656 225.796875 C 103.03125 225.691406 103.03125 225.425781 102.847656 225.320312 L 101.035156 224.273438 C 100.851562 224.167969 100.621094 224.300781 100.621094 224.511719 L 100.621094 224.566406 C 100.621094 224.726562 100.484375 224.851562 100.328125 224.839844 C 97.976562 224.671875 95.828125 224.929688 93.675781 227.21875 C 93.316406 227.605469 92.695312 227.609375 92.335938 227.222656 C 90.664062 225.433594 89.074219 224.957031 87.394531 224.824219 C 87.0625 224.796875 86.78125 225.058594 86.78125 225.386719 L 86.78125 225.660156 C 86.78125 225.953125 87.023438 226.210938 87.316406 226.226562 C 89.089844 226.320312 90.601562 227.179688 91.820312 228.769531 C 92.046875 229.070312 92.066406 229.484375 91.871094 229.804688 C 90.710938 231.691406 89.144531 232.894531 87.214844 233.3125 C 86.960938 233.367188 86.78125 233.605469 86.78125 233.867188 L 86.78125 234.144531 C 86.78125 234.503906 87.117188 234.773438 87.46875 234.699219 C 89.394531 234.292969 91.042969 233.207031 92.289062 231.65625 C 92.652344 231.199219 93.347656 231.199219 93.710938 231.652344 C 95.359375 233.707031 97.722656 234.902344 100.351562 234.886719 C 100.503906 234.886719 100.632812 235.007812 100.632812 235.160156 L 100.632812 235.292969 C 100.632812 235.503906 100.859375 235.636719 101.042969 235.53125 L 102.859375 234.484375 C 103.042969 234.378906 103.042969 234.113281 102.859375 234.007812 Z M 102.859375 234.007812 " fill-opacity="1" fill-rule="nonzero"/><path fill="#407bff" d="M 297.511719 226.890625 C 297.128906 226.890625 296.816406 227.203125 296.816406 227.585938 L 296.800781 233.511719 C 296.800781 233.75 296.609375 233.941406 296.371094 233.941406 L 286.96875 233.941406 L 286.96875 233.585938 C 286.96875 233.378906 286.742188 233.25 286.5625 233.355469 L 284.730469 234.414062 C 284.550781 234.515625 284.550781 234.773438 284.730469 234.878906 L 286.5625 235.9375 C 286.742188 236.039062 286.96875 235.910156 286.96875 235.703125 L 286.96875 235.351562 L 296.371094 235.351562 C 297.386719 235.351562 298.207031 234.527344 298.207031 233.511719 L 298.222656 227.589844 C 298.222656 227.203125 297.914062 226.890625 297.527344 226.890625 Z M 297.511719 226.890625 " fill-opacity="1" fill-rule="nonzero"/><path fill="#407bff" d="M 298.109375 224.925781 L 296.277344 223.867188 C 296.097656 223.761719 295.875 223.890625 295.875 224.097656 L 295.875 224.453125 L 286.394531 224.453125 C 285.378906 224.453125 284.558594 225.277344 284.558594 226.289062 L 284.574219 231.800781 C 284.574219 232.183594 284.886719 232.496094 285.269531 232.496094 C 285.65625 232.496094 285.964844 232.183594 285.964844 231.796875 L 285.964844 226.289062 C 285.964844 226.054688 286.160156 225.863281 286.394531 225.863281 L 295.875 225.863281 L 295.875 226.21875 C 295.875 226.425781 296.097656 226.554688 296.277344 226.449219 L 298.109375 225.390625 C 298.289062 225.289062 298.289062 225.027344 298.109375 224.925781 Z M 298.109375 224.925781 " fill-opacity="1" fill-rule="nonzero"/><g clip-path="url(#119a56a59e)"><path fill="#407bff" d="M 193.316406 216.300781 C 185.804688 216.300781 179.714844 222.390625 179.714844 229.902344 C 179.714844 237.414062 185.804688 243.503906 193.316406 243.503906 C 200.828125 243.503906 206.917969 237.414062 206.917969 229.902344 C 206.917969 222.390625 200.828125 216.300781 193.316406 216.300781 Z M 198.90625 231.484375 L 191.46875 235.777344 C 190.25 236.480469 188.730469 235.601562 188.730469 234.195312 L 188.730469 225.609375 C 188.730469 224.203125 190.25 223.324219 191.46875 224.027344 L 198.90625 228.320312 C 200.125 229.023438 200.125 230.78125 198.90625 231.484375 Z M 198.90625 231.484375 " fill-opacity="1" fill-rule="nonzero"/></g><g clip-path="url(#2313dbfcd3)"><path fill="#407bff" d="M 339.5625 198.328125 L 199.585938 198.328125 C 199.074219 195.863281 196.890625 194.011719 194.273438 194.011719 C 192.367188 194.011719 190.6875 195 189.722656 196.488281 L 46.140625 196.488281 C 44.511719 196.488281 43.191406 197.808594 43.191406 199.4375 C 43.191406 201.070312 44.511719 202.390625 46.140625 202.390625 L 189.722656 202.390625 C 190.6875 203.878906 192.367188 204.867188 194.273438 204.867188 C 196.890625 204.867188 199.074219 203.015625 199.585938 200.550781 L 339.5625 200.550781 C 340.175781 200.550781 340.675781 200.054688 340.675781 199.4375 C 340.675781 198.824219 340.175781 198.328125 339.5625 198.328125 Z M 339.5625 198.328125 " fill-opacity="1" fill-rule="nonzero"/></g><g fill="#407bff" fill-opacity="1"><g transform="translate(34.234334, 188.881201)"><g><path d="M 10.171875 -27.5625 L 0.609375 -27.5625 L 0.609375 -42.875 L 35.59375 -42.875 L 35.59375 -27.5625 L 26.03125 -27.5625 L 26.03125 0 L 10.171875 0 Z M 10.171875 -27.5625 "/></g></g></g><g fill="#407bff" fill-opacity="1"><g transform="translate(70.433297, 188.881201)"><g><path d="M 16.53125 -28.671875 L 16.53125 -27.5625 L 36.9375 -27.5625 L 36.9375 -15.3125 L 16.53125 -15.3125 L 16.53125 -14.203125 L 36.9375 -14.203125 L 36.9375 0 L 0.609375 0 L 0.609375 -42.875 L 36.9375 -42.875 L 36.9375 -28.671875 Z M 16.53125 -28.671875 "/></g></g></g><g fill="#407bff" fill-opacity="1"><g transform="translate(107.979771, 188.881201)"><g><path d="M 22.59375 -15.734375 L 21.625 -15.734375 L 24.875 -10.53125 L 18.1875 0 L -0.484375 0 L 13.046875 -21.4375 L 0.546875 -42.875 L 19.109375 -42.875 L 25.359375 -31.734375 L 31.609375 -42.875 L 50.109375 -42.875 L 37.546875 -21.4375 L 51.078125 0 L 32.53125 0 Z M 22.59375 -15.734375 "/></g></g></g><g fill="#407bff" fill-opacity="1"><g transform="translate(158.695076, 188.881201)"><g><path d="M 10.171875 -27.5625 L 0.609375 -27.5625 L 0.609375 -42.875 L 35.59375 -42.875 L 35.59375 -27.5625 L 26.03125 -27.5625 L 26.03125 0 L 10.171875 0 Z M 10.171875 -27.5625 "/></g></g></g><g fill="#407bff" fill-opacity="1"><g transform="translate(202.392758, 170.184017)"><g><path d="M 13.21875 -22.125 L 21.5 -22.125 L 21.5 -10.296875 C 21.5 -8.460938 21.195312 -6.867188 20.59375 -5.515625 C 19.988281 -4.160156 19.1875 -3.023438 18.1875 -2.109375 C 17.1875 -1.191406 16.054688 -0.503906 14.796875 -0.046875 C 13.546875 0.398438 12.257812 0.625 10.9375 0.625 C 9.613281 0.625 8.320312 0.398438 7.0625 -0.046875 C 5.8125 -0.503906 4.6875 -1.191406 3.6875 -2.109375 C 2.6875 -3.023438 1.882812 -4.160156 1.28125 -5.515625 C 0.675781 -6.867188 0.375 -8.460938 0.375 -10.296875 L 0.375 -22.125 L 8.59375 -22.125 L 8.59375 -10.296875 C 8.59375 -9.421875 8.832031 -8.757812 9.3125 -8.3125 C 9.800781 -7.875 10.332031 -7.65625 10.90625 -7.65625 C 11.5 -7.65625 12.03125 -7.875 12.5 -8.3125 C 12.976562 -8.757812 13.21875 -9.421875 13.21875 -10.296875 Z M 13.21875 -22.125 "/></g></g></g><g fill="#407bff" fill-opacity="1"><g transform="translate(225.531485, 170.184017)"><g><path d="M 14.40625 -12.546875 L 14.890625 -12.546875 L 13.125 -15.421875 L 13.125 -22.125 L 21.34375 -22.125 L 21.34375 0 L 13.015625 0 L 7.265625 -9.171875 L 6.765625 -9.171875 L 8.5625 -6.265625 L 8.5625 0 L 0.34375 0 L 0.34375 -22.125 L 8.25 -22.125 Z M 14.40625 -12.546875 "/></g></g></g><g fill="#407bff" fill-opacity="1"><g transform="translate(248.448939, 170.184017)"><g><path d="M 5.25 -14.21875 L 0.3125 -14.21875 L 0.3125 -22.125 L 18.359375 -22.125 L 18.359375 -14.21875 L 13.4375 -14.21875 L 13.4375 0 L 5.25 0 Z M 5.25 -14.21875 "/></g></g></g><g fill="#407bff" fill-opacity="1"><g transform="translate(268.395026, 170.184017)"><g><path d="M 0.34375 0 L 0.34375 -22.125 L 9.421875 -22.125 C 11.628906 -22.125 13.476562 -21.894531 14.96875 -21.4375 C 16.457031 -20.988281 17.640625 -20.363281 18.515625 -19.5625 C 19.398438 -18.757812 20.03125 -17.835938 20.40625 -16.796875 C 20.789062 -15.753906 20.972656 -14.65625 20.953125 -13.5 C 20.953125 -12.738281 20.828125 -11.984375 20.578125 -11.234375 C 20.328125 -10.484375 19.941406 -9.816406 19.421875 -9.234375 C 18.910156 -8.660156 18.242188 -8.238281 17.421875 -7.96875 L 21.75 0 L 13.15625 0 L 9.140625 -8.375 L 9.140625 -11.40625 L 10.96875 -11.40625 C 11.582031 -11.40625 12.03125 -11.566406 12.3125 -11.890625 C 12.59375 -12.222656 12.734375 -12.578125 12.734375 -12.953125 C 12.734375 -13.359375 12.59375 -13.71875 12.3125 -14.03125 C 12.03125 -14.351562 11.582031 -14.515625 10.96875 -14.515625 L 8.5625 -14.515625 L 8.5625 0 Z M 0.34375 0 "/></g></g></g><g fill="#407bff" fill-opacity="1"><g transform="translate(290.964771, 170.184017)"><g><path d="M 18.515625 -22.125 L 27.34375 0 L 18.515625 0 L 13.5625 -13.75 L 11.1875 -7.359375 L 15.265625 -7.359375 L 17.921875 0 L -0.0625 0 L 8.59375 -22.125 Z M 18.515625 -22.125 "/></g></g></g><g fill="#407bff" fill-opacity="1"><g transform="translate(319.540463, 170.184017)"><g><path d="M 0.34375 0 L 0.34375 -22.125 L 10.875 -22.125 C 12.707031 -22.125 14.300781 -21.785156 15.65625 -21.109375 C 17.019531 -20.441406 18.128906 -19.539062 18.984375 -18.40625 C 19.835938 -17.28125 20.421875 -16.046875 20.734375 -14.703125 C 21.046875 -13.367188 21.09375 -12.035156 20.875 -10.703125 C 20.65625 -9.378906 20.148438 -8.15625 19.359375 -7.03125 C 18.566406 -5.90625 17.476562 -5.003906 16.09375 -4.328125 C 14.71875 -3.648438 13.03125 -3.3125 11.03125 -3.3125 L 9.140625 -3.3125 L 9.140625 -11 L 11.03125 -11 C 11.644531 -11 12.097656 -11.15625 12.390625 -11.46875 C 12.679688 -11.789062 12.828125 -12.160156 12.828125 -12.578125 C 12.828125 -13.003906 12.679688 -13.375 12.390625 -13.6875 C 12.097656 -14 11.644531 -14.15625 11.03125 -14.15625 L 8.5625 -14.15625 L 8.5625 0 Z M 0.34375 0 "/></g></g></g><g clip-path="url(#076cc545db)"><path fill="#407bff" d="M 179.601562 174.03125 L 340.738281 174.03125 L 340.738281 189.183594 L 179.601562 189.183594 Z M 179.601562 174.03125 " fill-opacity="1" fill-rule="nonzero"/></g></svg>