<svg width="313" height="313" viewBox="0 0 313 313" fill="none" xmlns="http://www.w3.org/2000/svg">
<path d="M313 239.382H0V239.539H313V239.382Z" fill="#EBEBEB"/>
<path d="M69.8992 244.635H49.166V244.791H69.8992V244.635Z" fill="#EBEBEB"/>
<path d="M102.351 249.148H83.4646V249.304H102.351V249.148Z" fill="#EBEBEB"/>
<path d="M59.5326 250.444H35.5881V250.6H59.5326V250.444Z" fill="#EBEBEB"/>
<path d="M281.637 250.106H271.684V250.262H281.637V250.106Z" fill="#EBEBEB"/>
<path d="M269.675 250.106H245.06V250.262H269.675V250.106Z" fill="#EBEBEB"/>
<path d="M175.487 244.553H156.5V244.71H175.487V244.553Z" fill="#EBEBEB"/>
<path d="M223.338 244.553H178.203V244.71H223.338V244.553Z" fill="#EBEBEB"/>
<path d="M148.362 211.463H27.4877C26.5407 211.461 25.6332 211.084 24.9642 210.414C24.2952 209.743 23.9195 208.835 23.9195 207.888V37.9732C23.9277 37.0317 24.3071 36.1314 24.9752 35.468C25.6433 34.8046 26.5461 34.4316 27.4877 34.43H148.362C149.31 34.43 150.219 34.8066 150.89 35.4769C151.56 36.1473 151.936 37.0564 151.936 38.0045V207.888C151.936 208.836 151.56 209.746 150.89 210.416C150.219 211.086 149.31 211.463 148.362 211.463ZM27.4877 34.5552C26.5823 34.5569 25.7145 34.9177 25.0748 35.5585C24.4352 36.1993 24.076 37.0677 24.076 37.9732V207.888C24.076 208.794 24.4352 209.662 25.0748 210.303C25.7145 210.944 26.5823 211.305 27.4877 211.306H148.362C149.268 211.305 150.136 210.944 150.777 210.303C151.418 209.663 151.778 208.794 151.78 207.888V37.9732C151.778 37.0672 151.418 36.1988 150.777 35.5581C150.136 34.9175 149.268 34.5568 148.362 34.5552H27.4877Z" fill="#EBEBEB"/>
<path d="M283.772 211.463H162.891C161.944 211.461 161.036 211.084 160.366 210.414C159.696 209.744 159.319 208.836 159.317 207.888V37.9732C159.327 37.0311 159.708 36.1309 160.377 35.4676C161.046 34.8044 161.949 34.4316 162.891 34.43H283.772C284.713 34.4333 285.614 34.807 286.281 35.4702C286.947 36.1335 287.326 37.0327 287.334 37.9732V207.888C287.334 208.834 286.959 209.741 286.292 210.411C285.624 211.081 284.718 211.459 283.772 211.463ZM162.891 34.5552C161.985 34.5568 161.117 34.9175 160.476 35.5581C159.836 36.1988 159.475 37.0672 159.474 37.9732V207.888C159.475 208.794 159.836 209.663 160.476 210.303C161.117 210.944 161.985 211.305 162.891 211.306H283.772C284.678 211.305 285.546 210.944 286.187 210.303C286.828 209.663 287.188 208.794 287.19 207.888V37.9732C287.188 37.0672 286.828 36.1988 286.187 35.5581C285.546 34.9175 284.678 34.5568 283.772 34.5552H162.891Z" fill="#EBEBEB"/>
<path d="M183.662 166.647H165.652V239.382H183.662V166.647Z" fill="#E6E6E6"/>
<path d="M176.175 239.382H183.662V226.837H168.325L176.175 239.382Z" fill="#F5F5F5"/>
<path d="M53.5981 166.647H35.5881V239.382H53.5981V166.647Z" fill="#E6E6E6"/>
<path d="M183.656 166.647H47.0627V235.063H183.656V166.647Z" fill="#F5F5F5"/>
<path d="M178.166 187.65H52.584V172.688H178.166V187.65ZM53.21 187.024H177.54V173.314H53.21V187.024Z" fill="#EBEBEB"/>
<path d="M54.5496 239.382H47.0627V226.837H62.3997L54.5496 239.382Z" fill="#F5F5F5"/>
<path d="M178.166 229.022H52.584V193.34H178.166V229.022ZM53.21 228.396H177.54V193.966H53.21V228.396Z" fill="#EBEBEB"/>
<path d="M255.327 49.1535H112.987V147.723H255.327V49.1535Z" fill="#E6E6E6"/>
<path d="M257.943 49.1535H115.603V147.723H257.943V49.1535Z" fill="#F5F5F5"/>
<path d="M253.242 142.753V54.1365L120.298 54.1365V142.753H253.242Z" fill="white"/>
<path d="M253.248 142.747V54.1302H251.27V142.747H253.248Z" fill="#E6E6E6"/>
<path d="M255.996 62.0679H117.544V65.4107H255.996V62.0679Z" fill="#F5F5F5"/>
<g opacity="0.5">
<path d="M255.615 45.8608H249.993V155.342H255.615V45.8608Z" fill="#F0F0F0"/>
<path d="M248.472 45.8608H242.85V155.342H248.472V45.8608Z" fill="#F0F0F0"/>
<path d="M241.329 45.8608H235.708V155.342H241.329V45.8608Z" fill="#F0F0F0"/>
<path d="M234.193 45.8608H228.571V155.342H234.193V45.8608Z" fill="#F0F0F0"/>
<path d="M227.05 45.8608H221.429V155.342H227.05V45.8608Z" fill="#F0F0F0"/>
<path d="M219.908 45.8608H214.286V155.342H219.908V45.8608Z" fill="#F0F0F0"/>
<path d="M212.771 45.8608H207.15V155.342H212.771V45.8608Z" fill="#F0F0F0"/>
<path d="M205.628 45.8608H200.007V155.342H205.628V45.8608Z" fill="#F0F0F0"/>
<path d="M198.486 45.8608H192.864V155.342H198.486V45.8608Z" fill="#F0F0F0"/>
<path d="M191.343 45.8608H185.722V155.342H191.343V45.8608Z" fill="#F0F0F0"/>
<path d="M184.207 45.8608H178.585V155.342H184.207V45.8608Z" fill="#F0F0F0"/>
<path d="M177.064 45.8608H171.443V155.342H177.064V45.8608Z" fill="#F0F0F0"/>
<path d="M169.921 45.8608H164.3V155.342H169.921V45.8608Z" fill="#F0F0F0"/>
<path d="M162.779 45.8608H157.157V155.342H162.779V45.8608Z" fill="#F0F0F0"/>
<path d="M155.642 45.8608H150.021V155.342H155.642V45.8608Z" fill="#F0F0F0"/>
</g>
<path d="M80.2845 60.9286H39.0311V135.948H80.2845V60.9286Z" fill="#F0F0F0"/>
<path d="M89.1424 60.9286H41.6916V135.948H89.1424V60.9286Z" fill="#F5F5F5"/>
<path d="M43.6259 62.7064L43.6259 134.171H87.2081V62.7064H43.6259Z" fill="white"/>
<path d="M55.2445 76.9291V119.948C55.2445 120.902 56.018 121.676 56.9723 121.676H73.868C74.8222 121.676 75.5958 120.902 75.5958 119.948V76.9291C75.5958 75.9749 74.8222 75.2014 73.868 75.2014H56.9723C56.018 75.2014 55.2445 75.9749 55.2445 76.9291Z" fill="#F5F5F5"/>
<path d="M240.328 123.504L248.766 144.299C248.522 204.452 251.239 207.92 251.27 218.267H229.986C229.197 167.918 236.666 179.236 240.328 123.504Z" fill="#EBEBEB"/>
<path d="M252.222 184.933C235.076 137.726 195.6 152.343 197.372 169.552C199.143 186.761 262.081 212.083 252.222 184.933Z" fill="#EBEBEB"/>
<path d="M245.736 212.151C236.384 181.734 211.507 186.698 211.507 200.677C211.507 214.655 251.12 229.648 245.736 212.151Z" fill="#EBEBEB"/>
<path d="M245.073 157.239C230.387 116.549 193.81 122.183 196.758 139.329C199.707 156.475 253.53 180.626 245.073 157.239Z" fill="#EBEBEB"/>
<path d="M245.173 139.003C246.531 111.297 219.094 99.8908 220.997 116.467C222.9 133.044 244.39 154.935 245.173 139.003Z" fill="#EBEBEB"/>
<path d="M243.126 167.367C248.916 133.225 284.079 120.242 280.148 139.567C276.216 158.891 239.789 187.005 243.126 167.367Z" fill="#EBEBEB"/>
<path d="M240.165 148.068C233.335 112.267 264.923 96.3601 265.831 113.638C266.739 130.915 244.09 168.657 240.165 148.068Z" fill="#EBEBEB"/>
<path d="M237.423 188.507C251.377 154.009 281.243 162.566 278.244 178.266C275.246 193.966 229.398 208.352 237.423 188.507Z" fill="#EBEBEB"/>
<path d="M244.309 212.596C243.996 190.342 264.203 184.589 264.441 197.484C264.679 210.38 244.491 225.398 244.309 212.596Z" fill="#EBEBEB"/>
<path d="M238.137 239.539C232.844 239.556 227.703 237.766 223.565 234.465C219.428 231.164 216.541 226.55 215.382 221.385C214.835 218.607 214.041 215.883 213.009 213.247L212.84 212.821H263.44L263.264 213.247C262.234 215.883 261.442 218.607 260.898 221.385C259.738 226.55 256.849 231.165 252.711 234.466C248.572 237.767 243.431 239.556 238.137 239.539Z" fill="#E0E0E0"/>
<path d="M156.5 267.653C223.534 267.653 277.875 264.48 277.875 260.566C277.875 256.653 223.534 253.48 156.5 253.48C89.4664 253.48 35.1248 256.653 35.1248 260.566C35.1248 264.48 89.4664 267.653 156.5 267.653Z" fill="#F5F5F5"/>
<path d="M80.9856 133.926L80.5912 133.444C82.2104 132.124 83.9263 130.927 85.7244 129.864L86.0437 130.408C84.2722 131.453 82.5814 132.629 80.9856 133.926Z" fill="#407BFF"/>
<path d="M68.1276 151.817L67.5454 151.598C69.6953 145.878 73.0393 140.682 77.3548 136.355L77.7993 136.8C73.5468 141.063 70.25 146.182 68.1276 151.817Z" fill="#407BFF"/>
<path d="M189.409 179.405C189.362 173.971 187.988 168.631 185.406 163.849C182.824 159.067 179.113 154.988 174.595 151.968C170.078 148.947 164.891 147.076 159.485 146.517C154.079 145.959 148.619 146.73 143.579 148.763C139.914 141.252 134.005 135.067 126.669 131.063C119.334 127.059 110.935 125.435 102.635 126.415C94.3358 127.394 86.5462 130.93 80.3447 136.532C74.1433 142.134 69.8367 149.526 68.0211 157.683C59.0237 158.251 50.6008 162.3 44.5378 168.972C38.4748 175.644 35.2483 184.415 35.5422 193.425C35.8361 202.436 39.6272 210.978 46.112 217.241C52.5969 223.504 61.2657 226.995 70.281 226.975H180.657C186.412 226.983 191.986 224.972 196.411 221.293C200.835 217.614 203.83 212.5 204.872 206.84C205.915 201.181 204.939 195.336 202.116 190.322C199.293 185.308 194.801 181.442 189.421 179.399L189.409 179.405Z" fill="#407BFF"/>
<path d="M164.582 168.2H76.2531C75.5341 168.197 74.8456 167.909 74.3378 167.4C73.83 166.891 73.5441 166.202 73.5425 165.483C73.5441 164.765 73.8302 164.076 74.3382 163.568C74.8462 163.06 75.5347 162.774 76.2531 162.773H164.582C165.3 162.774 165.989 163.06 166.496 163.568C167.004 164.076 167.291 164.765 167.292 165.483C167.291 166.202 167.005 166.891 166.497 167.4C165.989 167.909 165.301 168.197 164.582 168.2Z" fill="#263238"/>
<path d="M151.26 204.884H89.5743C87.157 204.884 84.8387 203.923 83.1294 202.214C81.4201 200.505 80.4598 198.186 80.4598 195.769C80.4598 193.352 81.4201 191.033 83.1294 189.324C84.8387 187.615 87.157 186.654 89.5743 186.654H151.26C153.678 186.654 155.996 187.615 157.705 189.324C159.415 191.033 160.375 193.352 160.375 195.769C160.375 198.186 159.415 200.505 157.705 202.214C155.996 203.923 153.678 204.884 151.26 204.884ZM89.5743 187.28C87.323 187.28 85.1639 188.175 83.572 189.767C81.9801 191.359 81.0858 193.518 81.0858 195.769C81.0858 198.02 81.9801 200.179 83.572 201.771C85.1639 203.363 87.323 204.258 89.5743 204.258H151.26C153.512 204.258 155.671 203.363 157.263 201.771C158.855 200.179 159.749 198.02 159.749 195.769C159.749 193.518 158.855 191.359 157.263 189.767C155.671 188.175 153.512 187.28 151.26 187.28H89.5743Z" fill="white"/>
<path d="M103.985 202.693H89.5868C87.7472 202.694 85.982 201.966 84.6782 200.668C83.3745 199.371 82.6386 197.609 82.632 195.769C82.6369 193.934 83.3678 192.175 84.6649 190.877C85.9621 189.578 87.7203 188.846 89.5555 188.839H103.954C105.789 188.846 107.547 189.578 108.844 190.877C110.141 192.175 110.872 193.934 110.877 195.769C110.871 197.598 110.143 199.35 108.853 200.646C107.563 201.943 105.814 202.678 103.985 202.693Z" fill="white"/>
<path d="M167.104 115.578L155.392 165.483H85.5179L105.062 82.1938L153.445 93.5432L167.104 115.578Z" fill="#407BFF"/>
<path opacity="0.8" d="M167.104 115.578L155.392 165.483H85.5179L105.062 82.1938L153.445 93.5432L167.104 115.578Z" fill="#FAFAFA"/>
<path d="M157.99 124.856L104.918 112.398C104.736 112.356 104.565 112.279 104.413 112.17C104.262 112.062 104.133 111.925 104.035 111.767C103.937 111.608 103.871 111.432 103.841 111.249C103.81 111.065 103.817 110.877 103.86 110.696C103.945 110.329 104.172 110.011 104.491 109.811C104.81 109.612 105.195 109.547 105.562 109.631L158.641 122.07C159.007 122.158 159.324 122.387 159.522 122.707C159.72 123.027 159.784 123.412 159.699 123.779C159.614 124.148 159.386 124.468 159.066 124.669C158.746 124.871 158.359 124.938 157.99 124.856Z" fill="#407BFF"/>
<path d="M155.962 133.494L102.889 121.037C102.708 120.994 102.536 120.916 102.385 120.807C102.233 120.698 102.105 120.56 102.006 120.402C101.908 120.243 101.842 120.067 101.812 119.882C101.782 119.698 101.789 119.51 101.831 119.328C101.919 118.962 102.148 118.645 102.468 118.447C102.788 118.249 103.174 118.185 103.54 118.27L156.613 130.728C156.978 130.814 157.295 131.042 157.493 131.361C157.691 131.68 157.755 132.064 157.671 132.43C157.584 132.798 157.356 133.116 157.036 133.315C156.715 133.514 156.329 133.579 155.962 133.494Z" fill="#407BFF"/>
<path d="M153.933 142.102L100.861 129.651C100.495 129.563 100.178 129.334 99.9803 129.014C99.7822 128.694 99.7185 128.309 99.8032 127.942C99.8924 127.577 100.122 127.261 100.441 127.063C100.761 126.865 101.145 126.801 101.512 126.884L154.584 139.335C154.766 139.378 154.938 139.456 155.089 139.565C155.241 139.674 155.369 139.812 155.467 139.97C155.566 140.129 155.632 140.306 155.662 140.49C155.692 140.674 155.685 140.862 155.642 141.044C155.6 141.226 155.522 141.397 155.413 141.549C155.304 141.7 155.166 141.829 155.007 141.927C154.848 142.025 154.672 142.091 154.488 142.121C154.303 142.151 154.115 142.145 153.933 142.102Z" fill="#407BFF"/>
<path d="M151.911 150.766L98.8329 138.346C98.4676 138.257 98.1521 138.028 97.9542 137.708C97.7563 137.388 97.6919 137.004 97.7749 136.637C97.8627 136.271 98.0915 135.954 98.4116 135.756C98.7317 135.558 99.1171 135.494 99.4839 135.579L152.556 148.03C152.923 148.118 153.24 148.347 153.439 148.666C153.638 148.986 153.703 149.372 153.62 149.739C153.527 150.1 153.296 150.41 152.976 150.602C152.656 150.795 152.274 150.853 151.911 150.766Z" fill="#407BFF"/>
<path d="M128.781 154.453L96.8109 146.941C96.4485 146.849 96.137 146.618 95.9436 146.298C95.7503 145.979 95.6908 145.595 95.778 145.232C95.82 145.051 95.8974 144.879 96.0058 144.728C96.1142 144.576 96.2514 144.448 96.4096 144.349C96.5678 144.251 96.7439 144.185 96.9277 144.155C97.1115 144.125 97.2994 144.131 97.4807 144.174L129.457 151.686C129.638 151.729 129.81 151.807 129.961 151.916C130.113 152.025 130.242 152.163 130.34 152.321C130.438 152.48 130.504 152.657 130.534 152.841C130.564 153.025 130.557 153.213 130.515 153.395C130.472 153.579 130.393 153.753 130.283 153.907C130.172 154.06 130.032 154.19 129.87 154.289C129.709 154.387 129.529 154.452 129.342 154.481C129.155 154.509 128.964 154.499 128.781 154.453Z" fill="#407BFF"/>
<path d="M167.104 115.578L149.257 111.39L153.445 93.5432L167.104 115.578Z" fill="#407BFF"/>
<path d="M179.092 162.967L164.256 260.566H167.186L169.145 247.652H206.943L204.984 260.566H207.913L222.75 162.967H179.092ZM207.337 245.066H169.54L171.649 231.219H209.447L207.337 245.066ZM209.841 228.634H172.037L174.147 214.787H211.945L209.841 228.634ZM212.345 212.201H174.535L176.645 198.354H214.443L212.345 212.201ZM214.849 195.769H177.039L179.142 181.916H216.94L214.849 195.769ZM179.537 179.33L181.64 165.483H219.438L217.335 179.33H179.537Z" fill="#263238"/>
<path d="M228.853 162.967H185.196L200.032 260.566H202.962L200.996 247.652H238.794L240.76 260.566H243.689L228.853 162.967ZM188.507 165.471H226.305L228.409 179.318H190.611L188.507 165.471ZM191.011 181.903H228.803L230.906 195.756H193.108L191.011 181.903ZM193.515 198.342H231.313L233.404 212.214H195.606L193.515 198.342ZM196.019 214.774H233.817L235.921 228.621H198.104L196.019 214.774ZM200.62 245.054L198.517 231.207H236.315L238.418 245.054H200.62Z" fill="#263238"/>
<path opacity="0.4" d="M228.853 162.967H185.196L200.032 260.566H202.962L200.996 247.652H238.794L240.76 260.566H243.689L228.853 162.967ZM188.507 165.471H226.305L228.409 179.318H190.611L188.507 165.471ZM191.011 181.903H228.803L230.906 195.756H193.108L191.011 181.903ZM193.515 198.342H231.313L233.404 212.214H195.606L193.515 198.342ZM196.019 214.774H233.817L235.921 228.621H198.104L196.019 214.774ZM200.62 245.054L198.517 231.207H236.315L238.418 245.054H200.62Z" fill="white"/>
<path d="M210.148 67.9711C211.4 68.9351 212.502 69.8991 213.641 70.9007C214.781 71.9023 215.87 72.929 216.947 73.9869C219.131 76.1286 221.172 78.4122 223.056 80.8228L223.757 81.7681L224.108 82.2376C224.306 82.5144 224.484 82.8052 224.64 83.1077C225.144 84.1193 225.438 85.2223 225.504 86.3504C225.595 88.0891 225.415 89.8313 224.972 91.5149C224.207 94.5365 223.04 97.4419 221.504 100.154L218.305 98.8517C218.945 96.1503 219.399 93.4082 219.663 90.6448C219.782 89.4535 219.744 88.2518 219.551 87.0703C219.494 86.733 219.369 86.4111 219.181 86.1251C219.15 86.0938 219.138 86.0938 219.119 86.075L218.781 85.6931L218.105 84.9232C216.227 82.8949 214.248 80.9167 212.158 79.0137C210.067 77.1107 207.901 75.1951 205.797 73.4173L210.148 67.9711Z" fill="#7F3E3B"/>
<path d="M219.576 97.5621L215.976 100.066L220.358 102.72C220.358 102.72 222.618 100.561 221.648 98.5575L219.576 97.5621Z" fill="#7F3E3B"/>
<path d="M214.186 104.179L217.504 106.038L220.383 102.689L215.976 100.041L214.186 104.179Z" fill="#7F3E3B"/>
<path d="M185.64 54.8877C185.74 55.2946 185.609 55.6765 185.346 55.7453C185.083 55.8142 184.783 55.5387 184.676 55.1193C184.57 54.6999 184.708 54.3306 184.97 54.2617C185.233 54.1928 185.534 54.462 185.64 54.8877Z" fill="#263238"/>
<path d="M185.647 55.6702C185.482 57.0307 185.13 58.3621 184.601 59.6265C184.929 59.7528 185.279 59.8064 185.63 59.7837C185.98 59.761 186.321 59.6625 186.629 59.495L185.647 55.6702Z" fill="#630F0F"/>
<path d="M186.498 52.2773C186.449 52.293 186.397 52.293 186.348 52.2773C186.064 52.1567 185.755 52.1046 185.448 52.1253C185.14 52.146 184.841 52.2388 184.576 52.3962C184.524 52.4247 184.463 52.433 184.405 52.4197C184.347 52.4063 184.295 52.3722 184.261 52.3237C184.226 52.2751 184.21 52.2156 184.217 52.1564C184.223 52.0971 184.25 52.0421 184.294 52.0018C184.625 51.7942 185.001 51.6693 185.39 51.6377C185.779 51.6061 186.17 51.6687 186.529 51.8203C186.577 51.8395 186.618 51.8734 186.645 51.917C186.672 51.9606 186.685 52.0118 186.682 52.0633C186.678 52.1147 186.659 52.1637 186.626 52.2032C186.593 52.2428 186.548 52.2709 186.498 52.2835V52.2773Z" fill="#263238"/>
<path d="M198.473 56.027C199.055 59.8456 199.876 65.6987 203.231 67.176C203.231 67.176 203.556 71.1449 196.927 73.5299C189.64 76.1529 192.144 71.1699 192.144 71.1699C195.781 68.7849 194.617 65.874 192.927 63.3512L198.473 56.027Z" fill="#7F3E3B"/>
<path d="M203.857 66.356C203.857 65.1604 202.636 63.0883 201.403 63.226C200.045 63.3825 194.861 65.2918 192.971 67.0384C191.08 68.7849 192.42 71.846 192.42 71.846L203.857 66.356Z" fill="#263238"/>
<path d="M243.827 211.087C243.501 211.425 243.132 211.713 242.844 211.669C242.719 211.669 242.556 211.582 242.475 211.306C242.453 211.237 242.447 211.163 242.457 211.09C242.466 211.018 242.492 210.948 242.531 210.887C242.882 210.292 244.409 209.985 244.453 209.973C244.474 209.969 244.496 209.971 244.516 209.978C244.536 209.986 244.553 210 244.566 210.017C244.576 210.035 244.582 210.055 244.582 210.076C244.582 210.097 244.576 210.118 244.566 210.136C244.353 210.477 244.105 210.796 243.827 211.087ZM242.8 210.893C242.766 210.924 242.737 210.96 242.713 211C242.691 211.036 242.677 211.076 242.672 211.118C242.666 211.16 242.669 211.203 242.681 211.244C242.744 211.438 242.838 211.45 242.869 211.457C243.188 211.494 243.846 210.831 244.24 210.248C243.718 210.352 243.225 210.572 242.8 210.893Z" fill="#407BFF"/>
<path d="M244.553 210.154C244.541 210.168 244.526 210.179 244.509 210.186C243.99 210.349 242.631 210.305 242.325 209.879C242.281 209.811 242.26 209.731 242.267 209.65C242.274 209.57 242.307 209.494 242.362 209.435C242.412 209.367 242.476 209.31 242.549 209.269C242.623 209.228 242.704 209.204 242.788 209.197C243.47 209.115 244.503 209.96 244.547 209.998C244.561 210.01 244.573 210.025 244.579 210.043C244.586 210.061 244.588 210.08 244.584 210.098C244.579 210.119 244.569 210.139 244.553 210.154ZM242.569 209.528C242.569 209.528 242.569 209.528 242.537 209.566C242.45 209.679 242.487 209.729 242.506 209.754C242.681 210.004 243.639 210.117 244.228 210.023C243.831 209.675 243.337 209.457 242.813 209.397C242.765 209.401 242.719 209.414 242.677 209.437C242.635 209.46 242.598 209.491 242.569 209.528Z" fill="#407BFF"/>
<path d="M205.954 224.171C205.366 224.171 204.796 224.089 204.602 223.826C204.554 223.756 204.528 223.673 204.528 223.588C204.528 223.503 204.554 223.42 204.602 223.35C204.639 223.287 204.688 223.231 204.748 223.187C204.807 223.143 204.874 223.111 204.946 223.094C205.71 222.887 207.319 223.801 207.388 223.845C207.406 223.855 207.421 223.871 207.43 223.89C207.439 223.909 207.442 223.931 207.438 223.951C207.435 223.975 207.425 223.996 207.41 224.013C207.394 224.03 207.373 224.041 207.35 224.045C206.889 224.127 206.422 224.168 205.954 224.171ZM205.228 223.282C205.157 223.271 205.086 223.271 205.015 223.282C204.971 223.29 204.929 223.308 204.893 223.334C204.856 223.36 204.825 223.393 204.802 223.432C204.727 223.57 204.752 223.632 204.802 223.676C205.015 223.97 206.173 223.976 207.031 223.858C206.474 223.552 205.864 223.356 205.234 223.282H205.228Z" fill="#407BFF"/>
<path d="M207.35 224.045C207.336 224.051 207.32 224.051 207.306 224.045C206.749 223.801 205.654 222.793 205.735 222.286C205.735 222.161 205.841 222.011 206.142 221.98C206.253 221.966 206.367 221.976 206.474 222.008C206.582 222.04 206.682 222.095 206.768 222.167C207.189 222.667 207.439 223.287 207.481 223.939C207.484 223.958 207.481 223.978 207.473 223.995C207.466 224.013 207.453 224.028 207.438 224.039C207.424 224.046 207.41 224.051 207.394 224.052C207.379 224.053 207.364 224.051 207.35 224.045ZM206.229 222.167H206.161C205.967 222.167 205.954 222.261 205.948 222.286C205.898 222.599 206.649 223.382 207.2 223.72C207.146 223.194 206.926 222.699 206.574 222.305C206.476 222.227 206.355 222.183 206.229 222.18V222.167Z" fill="#407BFF"/>
<path d="M212.408 223.939H207.807L207.35 213.284H211.951L212.408 223.939Z" fill="#7F3E3B"/>
<path d="M249.261 208.339L245.004 209.885L239.595 200.345L243.852 198.799L249.261 208.339Z" fill="#7F3E3B"/>
<path d="M244.334 209.466L247.927 205.747C247.991 205.684 248.074 205.643 248.164 205.632C248.253 205.62 248.344 205.639 248.422 205.685L251.99 207.876C252.076 207.93 252.149 208.003 252.203 208.089C252.258 208.175 252.292 208.272 252.303 208.373C252.315 208.474 252.303 208.576 252.269 208.672C252.236 208.768 252.181 208.856 252.109 208.927C250.857 210.179 250.15 210.762 248.572 212.396C247.595 213.397 244.703 216.778 243.364 218.192C242.024 219.607 240.472 218.43 240.897 217.742C242.807 214.655 243.958 211.719 244.027 210.198C244.036 209.925 244.145 209.664 244.334 209.466Z" fill="#263238"/>
<path d="M207.832 223.407H212.84C212.932 223.406 213.021 223.437 213.092 223.494C213.164 223.551 213.214 223.63 213.234 223.72L214.142 227.808C214.165 227.906 214.165 228.009 214.142 228.108C214.119 228.207 214.074 228.299 214.01 228.377C213.946 228.456 213.865 228.519 213.773 228.561C213.68 228.603 213.58 228.624 213.478 228.621C211.669 228.621 209.053 228.49 206.774 228.49C204.114 228.49 202.949 228.634 199.825 228.634C197.947 228.634 197.415 226.725 198.204 226.549C201.804 225.761 203.6 225.679 206.711 223.764C207.045 223.543 207.433 223.42 207.832 223.407Z" fill="#263238"/>
<path d="M195.343 77.1044C194.636 78.8885 193.885 80.5474 193.108 82.2501C192.332 83.9529 191.506 85.6055 190.655 87.2581C188.929 90.6584 186.952 93.9248 184.739 97.03C184.157 97.8188 183.531 98.6013 182.861 99.3775C182.517 99.7719 182.166 100.135 181.753 100.542C181.275 100.993 180.752 101.396 180.194 101.744C179.274 102.306 178.307 102.786 177.302 103.177C176.363 103.559 175.424 103.872 174.504 104.148C170.877 105.2 167.155 105.892 163.392 106.213L162.691 102.833C166.04 101.625 169.446 100.367 172.582 98.9643C173.358 98.6013 174.122 98.2319 174.836 97.8501C175.495 97.5074 176.124 97.1073 176.714 96.6544C176.917 96.5013 177.104 96.3271 177.271 96.1348C177.49 95.8782 177.753 95.5777 177.991 95.2709C178.473 94.6449 178.948 93.9814 179.405 93.274C180.338 91.8843 181.202 90.3756 182.035 88.8419C182.867 87.3082 183.681 85.7119 184.457 84.1469C186.016 80.9731 187.525 77.6866 188.914 74.4752L195.343 77.1044Z" fill="#7F3E3B"/>
<path d="M205.841 65.2229C212.439 64.7096 218.361 74.494 218.361 74.494L213.622 82.1938C210.213 80.846 207.042 78.9585 204.232 76.6036C199.744 72.7036 201.334 65.5798 205.841 65.2229Z" fill="#407BFF"/>
<path opacity="0.3" d="M205.428 73.4673L212.37 82.8135L212.057 83.1954C212.057 83.1954 209.666 81.3174 206.899 78.6005L205.428 73.4673Z" fill="black"/>
<path d="M187.543 72.5159C187.174 75.7398 192.551 90 193.803 106.915L218.286 104.504C218.111 101.262 216.321 87.6025 213.078 72.1841C212.183 67.9273 208.884 64.6721 204.621 65.5047H204.502C201.078 66.1731 197.696 67.0405 194.373 68.1026C192.493 68.7871 190.661 69.5964 188.889 70.5252C188.518 70.7207 188.202 71.0046 187.967 71.3519C187.732 71.6991 187.587 72.0989 187.543 72.5159Z" fill="#407BFF"/>
<path opacity="0.3" d="M190.022 84.3598C190.435 86.0813 190.867 87.9468 191.274 89.9312C194.999 89.0485 194.279 80.7916 194.354 80.6852L190.022 84.3598Z" fill="black"/>
<path d="M195.519 74.1122C197.397 80.5537 190.448 89.1362 190.448 89.1362L183.449 84.629C183.449 84.629 183.399 78.7258 185.634 74.1184C188.47 68.2841 194.179 69.5173 195.519 74.1122Z" fill="#407BFF"/>
<path d="M162.76 102.22L159.949 101.838L159.993 107.71C159.993 107.71 163.78 108.098 165.884 105.487L165.471 104.386C165.256 103.814 164.891 103.31 164.414 102.929C163.937 102.548 163.365 102.303 162.76 102.22Z" fill="#7F3E3B"/>
<path d="M155.148 103.196L156.944 107.979L160.018 107.71L159.974 101.838L155.148 103.196Z" fill="#7F3E3B"/>
<path opacity="0.2" d="M207.35 213.291L207.607 219.275H212.208L211.951 213.291H207.35Z" fill="black"/>
<path opacity="0.2" d="M243.852 198.799L239.595 200.345L242.587 205.628L246.644 203.713L243.852 198.799Z" fill="black"/>
<path d="M198.918 50.5683C199.888 55.6201 200.714 58.5247 198.855 61.7236C196.063 66.5313 189.34 65.8239 186.886 61.1665C184.67 56.966 183.456 49.4164 187.8 46.1925C188.758 45.4722 189.884 45.0093 191.071 44.848C192.259 44.6868 193.467 44.8325 194.583 45.2714C195.698 45.7102 196.681 46.4275 197.44 47.3548C198.199 48.2821 198.708 49.3885 198.918 50.5683Z" fill="#7F3E3B"/>
<path d="M190.41 53.9424C187.33 55.4824 187.28 50.562 187.525 49.5166C186.366 50.6309 184.801 51.7514 181.959 50.5245C178.466 49.0158 179.455 45.072 181.959 45.1221C181.959 45.1221 180.081 41.5539 184.188 41.1783C185.878 41.122 187.563 41.381 189.158 41.942C189.158 41.942 190.68 37.9544 194.385 39.8887C196.345 40.9091 197.91 43.9264 197.91 43.9264C197.91 43.9264 205.891 45.1096 201.559 49.2787C202.542 51.4196 202.023 58.387 199.487 61.3668C198.379 62.6688 188.895 62.287 190.41 53.9424Z" fill="#263238"/>
<path d="M196.526 45.9609C196.526 45.9609 197.972 43.964 198.091 39.3566C201.466 43.025 196.526 45.9609 196.526 45.9609Z" fill="#263238"/>
<path d="M191.907 53.6607C191.988 54.9375 191.644 56.2053 190.93 57.2665C189.991 58.6625 188.714 58.0615 188.301 56.5904C187.925 55.2695 187.963 52.9471 189.234 52.0707C190.504 51.1943 191.775 52.1208 191.907 53.6607Z" fill="#7F3E3B"/>
<path d="M202.498 106.063C202.498 106.063 211.137 140.493 215.281 153.345C219.814 167.392 239.483 204.22 239.483 204.22L247.201 200.858C247.201 200.858 232.315 167.33 229.135 153.282C225.686 138.058 218.299 104.492 218.299 104.492L202.498 106.063Z" fill="#263238"/>
<path d="M237.198 201.678C237.166 201.678 239.702 205.303 239.702 205.303L248.372 201.472L246.619 197.885L237.198 201.678Z" fill="#407BFF"/>
<path opacity="0.3" d="M207.012 118.201C213.134 118.784 214.699 141.244 215.112 152.838C212.577 144.863 208.502 129.444 205.672 118.496C206.073 118.249 206.545 118.145 207.012 118.201Z" fill="black"/>
<path d="M193.816 106.915C193.816 106.915 194.811 142.296 196.683 156.206C198.63 170.673 205.829 216.928 205.829 216.928H213.622C213.622 216.928 211.82 170.216 210.762 155.924C209.61 140.343 209.91 105.318 209.91 105.318L193.816 106.915Z" fill="#263238"/>
<path d="M204.276 213.291C204.245 213.291 204.902 218.005 204.902 218.005L214.374 217.679L214.461 213.297L204.276 213.291Z" fill="#407BFF"/>
</svg>
